<?xml version="1.0" encoding="utf-8"?>
<!-- Generator: Adobe Illustrator 25.1.0, SVG Export Plug-In . SVG Version: 6.00 Build 0)  -->
<svg version="1.1" id="Layer_1" xmlns="http://www.w3.org/2000/svg" xmlns:xlink="http://www.w3.org/1999/xlink" x="0px" y="0px"
	 viewBox="0 0 200 70" style="enable-background:new 0 0 200 70;" xml:space="preserve">
<style type="text/css">
	.st0{enable-background:new    ;}
	.st1{fill:#FF6B6B;}
	.st2{fill:#4EBABA;}
</style>
<g class="st0">
	<path class="st1" d="M19.3,17L8.4,20.8l10.8,3.8v5L2.5,23.4v-5.2L19.3,12V17z"/>
	<path class="st1" d="M23.6,8.9h11.3c2.6,0,4.9,0.5,6.9,1.5c2,1,3.6,2.4,4.7,4.1c1.1,1.8,1.7,3.9,1.7,6.3c0,2.4-0.6,4.5-1.7,6.3
		c-1.1,1.8-2.7,3.2-4.7,4.1c-2,1-4.3,1.5-6.9,1.5H23.6V8.9z M34.6,27.3c2,0,3.7-0.6,4.9-1.7c1.2-1.2,1.9-2.8,1.9-4.8
		s-0.6-3.6-1.9-4.8c-1.2-1.2-2.9-1.7-4.9-1.7h-4.2v13.1H34.6z"/>
	<path class="st1" d="M67.3,28.1H57.2l-1.9,4.6h-6.9L59,8.9h6.6l10.5,23.8h-7L67.3,28.1z M65.3,23.1l-3.1-7.6l-3.1,7.6H65.3z"/>
	<path class="st1" d="M100.7,8.9v23.8h-5.5L84.7,20v12.7h-6.6V8.9h5.5l10.5,12.7V8.9H100.7z"/>
	<path class="st1" d="M105.5,8.9h6.7v23.8h-6.7V8.9z"/>
	<path class="st1" d="M136.1,27.5v5.2H117V8.9h18.7v5.2h-12v4h10.6v5h-10.6v4.4H136.1z"/>
	<path class="st1" d="M139.9,8.9h6.7v18.5h11.4v5.3h-18.1V8.9z"/>
</g>
<g class="st0">
	<path class="st2" d="M29.5,34.7v23.8h-2.4v-19l-9.3,16h-1.2L7.2,39.5v18.9H4.8V34.7h2.1l10.3,17.6l10.2-17.6H29.5z"/>
	<path class="st2" d="M52.2,52.1H38.9l-2.9,6.4h-2.6l10.9-23.8h2.5l10.9,23.8H55L52.2,52.1z M51.3,50.1l-5.7-12.8l-5.7,12.8H51.3z"
		/>
	<path class="st2" d="M68.4,50.2v8.2h-2.5v-8.2l-9.5-15.6h2.7L67.2,48l8.2-13.4h2.5L68.4,50.2z"/>
	<path class="st2" d="M84.8,57.1c-1.9-1.1-3.4-2.5-4.5-4.3s-1.6-3.9-1.6-6.2c0-2.3,0.5-4.4,1.6-6.2s2.6-3.3,4.5-4.3
		c1.9-1.1,4.1-1.6,6.4-1.6c2.4,0,4.5,0.5,6.4,1.6c1.9,1,3.4,2.5,4.5,4.3c1.1,1.8,1.6,3.9,1.6,6.2c0,2.3-0.5,4.4-1.6,6.2
		c-1.1,1.8-2.6,3.3-4.5,4.3c-1.9,1-4,1.6-6.4,1.6C88.9,58.7,86.7,58.1,84.8,57.1z M96.3,55.1c1.5-0.8,2.7-2,3.6-3.5
		c0.9-1.5,1.3-3.2,1.3-5c0-1.9-0.4-3.5-1.3-5C99,40,97.8,38.8,96.3,38c-1.5-0.8-3.2-1.3-5.1-1.3c-1.9,0-3.6,0.4-5.1,1.3
		c-1.5,0.9-2.7,2-3.6,3.5c-0.9,1.5-1.3,3.2-1.3,5c0,1.9,0.4,3.5,1.3,5c0.9,1.5,2.1,2.7,3.6,3.5c1.5,0.9,3.2,1.3,5.1,1.3
		C93.1,56.4,94.8,56,96.3,55.1z"/>
	<path class="st2" d="M125.6,58.5l-5.4-7.7c-0.6,0.1-1.2,0.1-1.9,0.1h-6.4v7.5h-2.5V34.7h8.9c3,0,5.4,0.7,7.1,2.2s2.6,3.4,2.6,6
		c0,1.9-0.5,3.4-1.4,4.7s-2.3,2.2-4,2.8l5.8,8.2H125.6z M123.6,47.2c1.2-1,1.9-2.5,1.9-4.4c0-1.9-0.6-3.4-1.9-4.4
		c-1.2-1-3-1.5-5.4-1.5h-6.3v11.9h6.3C120.5,48.8,122.3,48.2,123.6,47.2z"/>
	<path class="st2" d="M150.7,46.6h2.4v9.1c-1.1,1-2.4,1.7-3.9,2.2c-1.5,0.5-3.1,0.8-4.8,0.8c-2.4,0-4.5-0.5-6.4-1.6
		c-1.9-1-3.4-2.5-4.5-4.3c-1.1-1.8-1.6-3.9-1.6-6.2c0-2.3,0.5-4.4,1.6-6.2c1.1-1.8,2.6-3.3,4.5-4.3c1.9-1,4.1-1.6,6.5-1.6
		c1.8,0,3.5,0.3,5,0.9c1.5,0.6,2.8,1.4,3.8,2.6l-1.6,1.6c-1.9-1.9-4.3-2.8-7.2-2.8c-1.9,0-3.7,0.4-5.2,1.3c-1.6,0.9-2.8,2-3.7,3.5
		c-0.9,1.5-1.3,3.2-1.3,5c0,1.9,0.4,3.5,1.3,5s2.1,2.7,3.6,3.5c1.5,0.9,3.3,1.3,5.2,1.3c2.4,0,4.5-0.6,6.2-1.8V46.6z"/>
	<path class="st2" d="M175.1,52.1h-13.3l-2.9,6.4h-2.6l10.9-23.8h2.5l10.9,23.8H178L175.1,52.1z M174.2,50.1l-5.7-12.8l-5.7,12.8
		H174.2z"/>
	<path class="st2" d="M197.9,45.4v2.2l-14.8,5.9v-2.1l12.5-4.9l-12.5-4.9v-2.1L197.9,45.4z"/>
</g>
</svg>
